<?xml version="1.0" encoding="utf-8"?>
<!-- Generator: Adobe Illustrator 27.6.1, SVG Export Plug-In . SVG Version: 6.00 Build 0)  -->
<svg version="1.1" id="Capa_1" xmlns="http://www.w3.org/2000/svg" xmlns:xlink="http://www.w3.org/1999/xlink" x="0px" y="0px"
	 viewBox="0 0 500 500" style="enable-background:new 0 0 500 500;" xml:space="preserve">
<style type="text/css">
	.st0{clip-path:url(#SVGID_00000101824755162738039490000017510254156459686843_);}
	.st1{clip-path:url(#SVGID_00000041284964649394317790000016465828100360127369_);}
	.st2{fill:#5A503E;}
	.st3{clip-path:url(#SVGID_00000142875479178811293760000011077083629089537672_);}
	.st4{fill:#FFFFFF;}
</style>
<g>
	<defs>
		<rect id="SVGID_1_" x="27" y="27" width="446" height="446"/>
	</defs>
	<clipPath id="SVGID_00000011729203687459437230000012901502073482797747_">
		<use xlink:href="#SVGID_1_"  style="overflow:visible;"/>
	</clipPath>
	<g style="clip-path:url(#SVGID_00000011729203687459437230000012901502073482797747_);">
		<g>
			<defs>
				<path id="SVGID_00000072251144655225313180000000782092359781464459_" d="M250,27C126.8,27,27,126.8,27,250s99.8,223,223,223
					s223-99.8,223-223S373.2,27,250,27"/>
			</defs>
			<clipPath id="SVGID_00000131362500831219547570000002168482795651461260_">
				<use xlink:href="#SVGID_00000072251144655225313180000000782092359781464459_"  style="overflow:visible;"/>
			</clipPath>
			<g style="clip-path:url(#SVGID_00000131362500831219547570000002168482795651461260_);">
				<path class="st2" d="M27,27h446v446H27V27z"/>
			</g>
		</g>
	</g>
</g>
<g>
	<g>
		<defs>
			<rect id="SVGID_00000107559963654520596440000012544608644566550436_" x="68.7" y="69.3" width="362.7" height="361.4"/>
		</defs>
		<clipPath id="SVGID_00000040573010841971126310000007632899204482380194_">
			<use xlink:href="#SVGID_00000107559963654520596440000012544608644566550436_"  style="overflow:visible;"/>
		</clipPath>
		<g style="clip-path:url(#SVGID_00000040573010841971126310000007632899204482380194_);">
			<path class="st4" d="M262.8,389.6c-4.2,0.4-8.4,0.6-12.6,0.6c-4.3,0-8.5-0.2-12.6-0.6c-31.2-2.8-59.4-15.7-81.4-35.5
				c-28.5-25.7-46.4-62.9-46.4-104.3c0-77.5,62.9-140.3,140.4-140.3s140.4,62.8,140.4,140.3c0,41.4-17.9,78.6-46.4,104.3
				C322.2,373.9,294,386.8,262.8,389.6z M297.6,406.1l12.1,9.3c1.8,1.4,3.9,2,5.9,2c4.6,0,9-3.3,9.7-8.4l2-15.1
				c1.4-10.8,10.7-18.5,21.1-18.5c1.8,0,3.7,0.2,5.5,0.7l0.3,0.1l14.4,3.9c0.9,0.2,1.7,0.3,2.6,0.3c6.1,0,11-5.9,9.3-12.2l-3.9-14.7
				c-3.3-12.4,5-24.9,17.8-26.6l15.1-2c7.4-1,11-9.6,6.4-15.5l-9.3-12.1c-7.8-10.2-4.9-24.9,6.2-31.4l13.2-7.6
				c6.5-3.7,6.5-13.1,0-16.8l-13.2-7.6c-11.1-6.4-14.1-21.2-6.2-31.4l9.3-12.1c4.5-5.9,1-14.5-6.4-15.5l-15.1-2
				c-12.7-1.7-21.1-14.2-17.8-26.6l3.9-14.7c1.7-6.4-3.2-12.2-9.3-12.2c-0.8,0-1.7,0.1-2.6,0.3l-14.7,3.9c-1.9,0.5-3.7,0.7-5.5,0.7
				c-10.4,0-19.6-7.7-21.1-18.5l-2-15.1c-0.7-5.2-5.1-8.4-9.7-8.4c-2,0-4.1,0.6-5.9,2l-12.1,9.3c-3.9,3-8.4,4.4-12.9,4.4
				c-7.3,0-14.5-3.7-18.4-10.6l-7.6-13.2c-1.9-3.2-5.1-4.8-8.4-4.8c-3.3,0-6.5,1.6-8.4,4.8l-7.6,13.2c-4,6.9-11.1,10.6-18.5,10.6
				c-4.5,0-9-1.4-12.9-4.4l-12.1-9.3c-1.8-1.4-3.9-2-5.9-2c-4.6,0-9,3.3-9.7,8.4l-2,15.1c-1.4,10.8-10.7,18.5-21.1,18.5
				c-1.8,0-3.7-0.2-5.5-0.7l-14.7-3.9c-0.9-0.2-1.7-0.3-2.6-0.3c-6.1,0-11,5.9-9.3,12.2l4,14.7c3.3,12.4-5,24.9-17.8,26.6l-15.1,2
				c-7.4,1-11,9.6-6.4,15.5l9.3,12.1c7.8,10.2,4.9,25-6.2,31.4l-13.2,7.6c-6.5,3.7-6.5,13.1,0,16.8l13.2,7.6
				c11.1,6.4,14.1,21.2,6.2,31.4l-9.3,12.1c-4.5,5.9-1,14.5,6.4,15.5l15.1,2c12.7,1.7,21.1,14.2,17.8,26.6l-4,14.7
				c-1.7,6.3,3.2,12.2,9.3,12.2c0.8,0,1.7-0.1,2.6-0.3l14.4-3.9l0.3-0.1c1.9-0.5,3.7-0.7,5.5-0.7c10.4,0,19.6,7.7,21.1,18.5l2,15.1
				c0.7,5.1,5.1,8.4,9.7,8.4c2,0,4.1-0.6,5.9-2l12.1-9.3c3.9-3,8.4-4.4,12.9-4.4c5.7,0,11.3,2.3,15.4,6.6c1.1,1.2,2.2,2.6,3,4.1
				l7.6,13.2c1.9,3.2,5.1,4.9,8.4,4.9c3.3,0,6.5-1.6,8.4-4.9l7.6-13.2c0.9-1.5,1.9-2.9,3-4.1c4.1-4.3,9.7-6.6,15.4-6.6
				C289.2,401.7,293.7,403.1,297.6,406.1"/>
		</g>
	</g>
	<path class="st4" d="M250.2,365.7c-63.9,0-115.9-52-115.9-115.8S186.3,134,250.2,134s115.9,52,115.9,115.8S314.1,365.7,250.2,365.7
		z M250.2,122c-70.5,0-127.9,57.3-127.9,127.8s57.4,127.8,127.9,127.8c70.5,0,127.9-57.3,127.9-127.8S320.7,122,250.2,122"/>
	<path class="st4" d="M293.6,264c-0.9,0.9-1.3,2.2-1.1,3.5l8.2,47.8c0.5,3.2-2.8,5.7-5.7,4.2L252,296.8c-1.1-0.6-2.5-0.6-3.7,0
		l-42.9,22.6c-2.9,1.5-6.3-0.9-5.7-4.2l8.2-47.8c0.2-1.2-0.2-2.6-1.1-3.5L172,230.1c-2.3-2.3-1.1-6.2,2.2-6.7l48-6.9
		c1.3-0.2,2.4-1,3-2.2l21.5-43.5c1.4-2.9,5.6-2.9,7.1,0l21.5,43.5c0.6,1.2,1.7,2,3,2.2l48,6.9c3.2,0.5,4.5,4.5,2.2,6.7L293.6,264"/>
</g>
</svg>
