<?xml version="1.0" encoding="utf-8"?>
<!-- Generator: Adobe Illustrator 27.6.1, SVG Export Plug-In . SVG Version: 6.00 Build 0)  -->
<svg version="1.1" id="Capa_1" xmlns="http://www.w3.org/2000/svg" xmlns:xlink="http://www.w3.org/1999/xlink" x="0px" y="0px"
	 viewBox="0 0 500 500" style="enable-background:new 0 0 500 500;" xml:space="preserve">
<style type="text/css">
	.st0{clip-path:url(#SVGID_00000165942179632962668000000012364413531159787946_);}
	.st1{clip-path:url(#SVGID_00000071534417793869025090000018026637103768762266_);}
	.st2{fill:#5A503E;}
	.st3{clip-path:url(#SVGID_00000008834580626182013080000007871809486523126426_);}
	.st4{fill:#FFFFFF;}
</style>
<g>
	<defs>
		<rect id="SVGID_1_" x="51.8" y="31.7" width="396.3" height="396.3"/>
	</defs>
	<clipPath id="SVGID_00000149347825229588340680000015712015807067288470_">
		<use xlink:href="#SVGID_1_"  style="overflow:visible;"/>
	</clipPath>
	<g style="clip-path:url(#SVGID_00000149347825229588340680000015712015807067288470_);">
		<g>
			<defs>
				<path id="SVGID_00000180342842889195832720000010857318139353872289_" d="M250,31.7c-109.4,0-198.2,88.7-198.2,198.2
					C51.8,339.3,140.6,428,250,428s198.2-88.7,198.2-198.2C448.2,120.4,359.4,31.7,250,31.7"/>
			</defs>
			<clipPath id="SVGID_00000019644515608743448210000014008950561044241324_">
				<use xlink:href="#SVGID_00000180342842889195832720000010857318139353872289_"  style="overflow:visible;"/>
			</clipPath>
			<g style="clip-path:url(#SVGID_00000019644515608743448210000014008950561044241324_);">
				<path class="st2" d="M51.8,31.7h396.3V428H51.8V31.7z"/>
			</g>
		</g>
	</g>
</g>
<g>
	<defs>
		<rect id="SVGID_00000074408690901915779310000010614613275165262985_" x="100" y="85.8" width="289.3" height="288"/>
	</defs>
	<clipPath id="SVGID_00000157997906144981779670000000258704804424137350_">
		<use xlink:href="#SVGID_00000074408690901915779310000010614613275165262985_"  style="overflow:visible;"/>
	</clipPath>
	<g style="clip-path:url(#SVGID_00000157997906144981779670000000258704804424137350_);">
		<path class="st4" d="M370.5,160.6L348.1,183c6.5,14.3,10.1,30.2,10.1,46.9c0,62.9-51,113.9-113.9,113.9
			c-62.9,0-113.9-51-113.9-113.9c0-62.9,51-113.9,113.9-113.9c15.7,0,30.7,3.2,44.3,9l22.6-22.6c-20-10.5-42.8-16.4-66.9-16.4
			c-79.5,0-144,64.5-144,144c0,79.5,64.5,144,144,144c79.5,0,144-64.5,144-144C388.3,204.7,381.8,181.1,370.5,160.6z"/>
	</g>
</g>
<path class="st4" d="M248.8,245.3c1.6-3.4,2.9-6.6,4.5-9.6c16.9-31.8,36.5-61.8,60.4-88.8c16.3-18.4,34-35.2,53.8-49.9
	c7.7-5.7,17.6-5.3,24.3,1c6.5,6.1,7.9,16.1,2.9,23.6c-1.3,1.9-2.9,3.7-4.8,5.1c-31.1,23.1-56.5,51.5-78,83.6
	c-16.1,24.1-30.2,49.4-40.8,76.4c-5.2,13.3-22.1,16.1-31.6,5.3c-13.2-15-26.3-30.2-39.4-45.3c-5.3-6.1-10.5-12.1-16-18.1
	c-6.9-7.5-6.3-19.5,1.4-26.6c7.6-7,19.5-6.4,26.5,1.4c8.2,9.3,16.3,18.7,24.4,28.1C240.5,236,244.4,240.3,248.8,245.3z"/>
</svg>
