<?xml version="1.0" encoding="utf-8"?>
<!-- Generator: Adobe Illustrator 27.6.1, SVG Export Plug-In . SVG Version: 6.00 Build 0)  -->
<svg version="1.1" id="Capa_1" xmlns="http://www.w3.org/2000/svg" xmlns:xlink="http://www.w3.org/1999/xlink" x="0px" y="0px"
	 viewBox="0 0 500 500" style="enable-background:new 0 0 500 500;" xml:space="preserve">
<style type="text/css">
	.st0{fill:#5A503E;}
	.st1{fill:none;stroke:#FFFFFF;stroke-width:8;stroke-miterlimit:10;}
	.st2{fill:#FFFFFF;}
</style>
<g>
	<circle class="st0" cx="250" cy="250" r="233.4"/>
	<g>
		<circle class="st1" cx="250" cy="250" r="201.6"/>
		<g>
			<path class="st2" d="M255,127.4H245c-0.8,0-1.5-0.7-1.5-1.5V95.3c0-0.8,0.7-1.5,1.5-1.5h9.9c0.8,0,1.5,0.7,1.5,1.5v30.6
				C256.4,126.7,255.8,127.4,255,127.4"/>
			<path class="st2" d="M255,406.7H245c-0.8,0-1.5-0.7-1.5-1.5v-30.6c0-0.8,0.7-1.5,1.5-1.5h9.9c0.8,0,1.5,0.7,1.5,1.5v30.6
				C256.4,406,255.8,406.7,255,406.7"/>
			<path class="st2" d="M340.3,166.9l-7-7c-0.6-0.6-0.6-1.5,0-2.1l21.6-21.6c0.6-0.6,1.5-0.6,2.1,0l7,7c0.6,0.6,0.6,1.5,0,2.1
				l-21.6,21.6C341.8,167.4,340.9,167.4,340.3,166.9"/>
			<path class="st2" d="M143.1,364.4l-7-7c-0.6-0.6-0.6-1.5,0-2.1l21.6-21.6c0.6-0.6,1.5-0.6,2.1,0l7,7c0.6,0.6,0.6,1.5,0,2.1
				l-21.6,21.6C144.5,364.9,143.6,364.9,143.1,364.4"/>
			<path class="st2" d="M372.7,255.2v-10c0-0.8,0.7-1.5,1.5-1.5h30.5c0.8,0,1.5,0.7,1.5,1.5v10c0,0.8-0.7,1.5-1.5,1.5h-30.5
				C373.4,256.7,372.7,256,372.7,255.2"/>
			<path class="st2" d="M93.8,255.2v-10c0-0.8,0.7-1.5,1.5-1.5h30.5c0.8,0,1.5,0.7,1.5,1.5v10c0,0.8-0.7,1.5-1.5,1.5H95.3
				C94.5,256.7,93.8,256,93.8,255.2"/>
			<path class="st2" d="M333.3,340.7l7-7c0.6-0.6,1.5-0.6,2.1,0l21.6,21.6c0.6,0.6,0.6,1.5,0,2.1l-7,7c-0.6,0.6-1.5,0.6-2.1,0
				l-21.6-21.6C332.7,342.2,332.7,341.2,333.3,340.7"/>
			<path class="st2" d="M136,143.2l7-7c0.6-0.6,1.5-0.6,2.1,0l21.6,21.6c0.6,0.6,0.6,1.5,0,2.1l-7,7c-0.6,0.6-1.5,0.6-2.1,0
				L136,145.2C135.5,144.7,135.5,143.7,136,143.2"/>
			<path class="st2" d="M320.1,303.9l-53.5-53.5c0-0.1,0-0.1,0-0.2c0-3.7-1.2-7.2-3.3-9.9v-75.4c0-7.3-6-13.4-13.4-13.4
				c-7.3,0-13.4,6-13.4,13.4v75.4c-2.1,2.8-3.3,6.2-3.3,9.9c0,7.2,4.6,13.3,11,15.7l56.9,56.9c5.2,5.2,13.7,5.2,18.9,0
				C325.3,317.6,325.3,309.1,320.1,303.9"/>
		</g>
	</g>
</g>
</svg>
