<?xml version="1.0" encoding="utf-8"?>
<!-- Generator: Adobe Illustrator 27.6.1, SVG Export Plug-In . SVG Version: 6.00 Build 0)  -->
<svg version="1.1" id="Capa_1" xmlns="http://www.w3.org/2000/svg" xmlns:xlink="http://www.w3.org/1999/xlink" x="0px" y="0px"
	 viewBox="0 0 500 500" style="enable-background:new 0 0 500 500;" xml:space="preserve">
<style type="text/css">
	.st0{clip-path:url(#SVGID_00000109023114254678711690000008082607609743347348_);}
	.st1{fill:#010101;}
</style>
<g>
	<defs>
		<rect id="SVGID_1_" x="14.7" y="8.6" width="471" height="471"/>
	</defs>
	<clipPath id="SVGID_00000000182624358090742240000015498579291548782250_">
		<use xlink:href="#SVGID_1_"  style="overflow:visible;"/>
	</clipPath>
	<g style="clip-path:url(#SVGID_00000000182624358090742240000015498579291548782250_);">
		<path class="st1" d="M250.2,8.6C120.3,8.6,14.7,114.3,14.7,244.1s105.6,235.5,235.5,235.5c129.9,0,235.5-105.6,235.5-235.5
			S380.1,8.6,250.2,8.6z M250.2,448.2c-112.5,0-204.1-91.6-204.1-204.1S137.7,40,250.2,40s204.1,91.6,204.1,204.1
			S362.7,448.2,250.2,448.2z"/>
	</g>
</g>
<path class="st1" d="M226,139.4c-6.1-6.1-16.1-6.1-22.2,0c-6.1,6.1-6.1,16.1,0,22.2l82.6,82.6l-82.6,82.6c-6.1,6.1-6.1,16.1,0,22.2
	c3.1,3.1,7.1,4.6,11.1,4.6c4,0,8-1.5,11.1-4.6l93.7-93.7c6.1-6.1,6.1-16.1,0-22.2L226,139.4z"/>
</svg>
